<?xml version="1.0" encoding="UTF-8"?>
<svg width="12px" height="12px" viewBox="0 0 12 12" version="1.1" xmlns="http://www.w3.org/2000/svg" xmlns:xlink="http://www.w3.org/1999/xlink">
    <!-- Generator: Sketch 57.1 (83088) - https://sketch.com -->
    <title>cart</title>
    <desc>Created with Sketch.</desc>
    <g id="Pages" stroke="none" stroke-width="1" fill="none" fill-rule="evenodd">
        <g id="Index" transform="translate(-1218.000000, -2544.000000)" fill="#FFC600" fill-rule="nonzero">
            <g id="footer" transform="translate(0.000000, 2472.000000)">
                <g id="cart" transform="translate(1218.000000, 72.000000)">
                    <path d="M11.864,0.154 C11.783,0.0570126578 11.663361,0.000668888872 11.537,4.54747351e-13 L9.225,4.54747351e-13 L9.225,1.227 C9.225,1.79 8.741,2.249 8.145,2.249 C7.551,2.249 7.067,1.791 7.067,1.227 L7.067,4.54747351e-13 L4.909,4.54747351e-13 L4.909,1.227 C4.909,1.79 4.424,2.249 3.829,2.249 C3.234,2.249 2.751,1.791 2.751,1.227 L2.751,4.54747351e-13 L0.438,4.54747351e-13 C0.311669929,0.000805160612 0.192085359,0.0571232763 0.111,0.154 C0.0272492552,0.253376042 -0.0118211461,0.382887187 0.003,0.512 L0.779,7.646 C0.794,8.452 1.421,9.101 2.19,9.101 L9.785,9.101 C10.555,9.101 11.181,8.452 11.196,7.646 L11.972,0.512 C11.9863427,0.382930491 11.9473281,0.253604575 11.864,0.154 Z" id="Shape"></path>
                    <path d="M3.829,11.964 C4.068,11.964 4.262,11.78 4.262,11.555 L4.262,9.305 C4.262,8.673 4.934,8.283 5.557,8.283 L6.636,8.283 C7.291,8.283 7.714,8.684 7.714,9.305 L7.714,11.555 C7.714,11.78 7.908,11.964 8.145,11.964 C8.384,11.964 8.578,11.78 8.578,11.555 L8.578,9.305 C8.577,8.238 7.761,7.465 6.636,7.465 L5.557,7.465 C4.367,7.465 3.398,8.291 3.398,9.305 L3.398,11.555 C3.398,11.78 3.592,11.964 3.829,11.964 Z" id="Shape"></path>
                </g>
            </g>
        </g>
    </g>
</svg>